{"accessors" : [{"bufferView" : 0, "byteOffset" : 0, "componentType" : 5123, "count" : 19830, "type" : "SCALAR", "max" : [19829], "min" : [0]}, {"bufferView" : 1, "byteOffset" : 0, "componentType" : 5126, "count" : 19830, "type" : "VEC3", "max" : [2.787497043609619, 9.063484191894531, 2.6925899982452393], "min" : [-3.0603199005126953, 2.403059959411621, -3.237433910369873]}, {"bufferView" : 1, "byteOffset" : 12, "componentType" : 5126, "count" : 19830, "type" : "VEC2", "max" : [1, -0], "min" : [0, -1]}, {"bufferView" : 1, "byteOffset" : 20, "componentType" : 5126, "count" : 19830, "type" : "VEC3", "max" : [0.9998689293861389, 0.9997592568397522, 0.9999822974205017], "min" : [-0.9998772740364075, -0.9985526204109192, -0.9998634457588196]}], "asset" : {"generator" : "Aspose.3D 21.1", "version" : "2.0"}, "buffers" : [{"uri" : "buffer.bin", "byteLength" : 674228}], "bufferViews" : [{"buffer" : 0, "byteOffset" : 0, "byteLength" : 39660, "target" : 34963}, {"buffer" : 0, "byteOffset" : 39664, "byteLength" : 634560, "byteStride" : 32, "target" : 34962}], "meshes" : [{"primitives" : [{"attributes" : {"POSITION" : 1, "TEXCOORD_0" : 2, "NORMAL" : 3}, "indices" : 0, "mode" : 4}]}], "nodes" : [{"mesh" : 0, "name" : "head3d:texture_group_0"}], "scene" : 0, "scenes" : [{"nodes" : [0]}]}