# This file uses centimeters as units for non-parametric coordinates.

mtllib tree10.mtl
g default
v 23.026154 33.333256 1.968336
v 22.761442 22.269524 -2.475531
v 17.507874 23.217516 3.389760
v 26.534340 22.169991 3.457730
v 23.546955 31.721336 -1.954968
v 22.316803 26.144272 -5.812171
v 20.327496 28.376040 3.078214
v 17.977184 27.860395 4.855264
v 26.021048 30.743368 2.418871
v 27.131920 26.135315 2.270434
v 20.309389 20.888617 -3.436673
v 18.531534 24.260128 0.086744
v 26.002943 20.312500 -1.975109
v 27.686270 21.899717 1.418460
v 21.257120 23.873400 5.382749
v 24.718304 21.885984 4.010687
v 18.537659 29.528500 -2.742652
v 22.756512 28.578697 7.254710
v 26.703053 29.662451 -1.753763
v 22.743517 17.504068 1.034489
vt 0.666667 1.000000
vt 0.500000 0.797275
vt 0.833333 0.797275
vt 0.500000 0.594551
vt 0.666667 0.674860
vt 0.833333 0.594551
vt 0.500000 0.391827
vt 0.605594 0.315266
vt 0.727739 0.315266
vt 0.833333 0.391827
vt -0.000000 1.000000
vt -0.166667 0.797275
vt 0.166667 0.797275
vt 1.000000 0.674860
vt 0.000000 0.674860
vt 0.166667 0.594551
vt 0.938927 0.315266
vt -0.061073 0.315266
vt 0.061073 0.315266
vt 0.166667 0.391827
vt 0.333333 1.000000
vt 0.333333 0.674860
vt 0.272260 0.315266
vt 0.394406 0.315266
vt 0.500000 0.066686
vn -0.838988 0.470226 -0.273836
vn -0.838988 0.470226 -0.273836
vn -0.838988 0.470226 -0.273836
vn -0.120941 0.649277 -0.750875
vn -0.120941 0.649277 -0.750875
vn -0.120941 0.649277 -0.750875
vn -0.369404 0.891562 0.262026
vn -0.369404 0.891562 0.262026
vn -0.369404 0.891562 0.262026
vn -0.046742 0.982916 0.178022
vn -0.046742 0.982916 0.178022
vn -0.046742 0.982916 0.178022
vn 0.519963 -0.575461 -0.631255
vn 0.519963 -0.575461 -0.631255
vn 0.519963 -0.575461 -0.631255
vn -0.668860 -0.092648 -0.737592
vn -0.668860 -0.092648 -0.737592
vn -0.668860 -0.092648 -0.737592
vn -0.929880 -0.197085 -0.310612
vn -0.929880 -0.197085 -0.310612
vn -0.929880 -0.197085 -0.310612
vn -0.995218 -0.051593 -0.082939
vn -0.995218 -0.051593 -0.082939
vn -0.995218 -0.051593 -0.082939
vn -0.949079 0.204146 -0.239946
vn -0.949079 0.204146 -0.239946
vn -0.949079 0.204146 -0.239946
vn 0.028489 0.239913 0.970376
vn 0.028489 0.239913 0.970376
vn 0.028489 0.239913 0.970376
vn -0.147774 0.987968 0.045630
vn -0.147774 0.987968 0.045630
vn -0.147774 0.987968 0.045630
vn -0.311861 0.939298 0.143048
vn -0.311861 0.939298 0.143048
vn -0.311861 0.939298 0.143048
vn 0.775716 0.199442 0.598738
vn 0.775716 0.199442 0.598738
vn 0.775716 0.199442 0.598738
vn -0.419590 -0.274344 0.865263
vn -0.419590 -0.274344 0.865263
vn -0.419590 -0.274344 0.865263
vn -0.406765 -0.260155 0.875706
vn -0.406765 -0.260155 0.875706
vn -0.406765 -0.260155 0.875706
vn 0.124641 -0.462518 0.877805
vn 0.124641 -0.462518 0.877805
vn 0.124641 -0.462518 0.877805
vn 0.712484 -0.147112 0.686094
vn 0.712484 -0.147112 0.686094
vn 0.712484 -0.147112 0.686094
vn 0.244482 0.286072 0.926494
vn 0.244482 0.286072 0.926494
vn 0.244482 0.286072 0.926494
vn 0.595952 0.780116 -0.190422
vn 0.595952 0.780116 -0.190422
vn 0.595952 0.780116 -0.190422
vn 0.957680 0.270805 0.097537
vn 0.957680 0.270805 0.097537
vn 0.957680 0.270805 0.097537
vn 0.483426 0.868426 -0.110165
vn 0.483426 0.868426 -0.110165
vn 0.483426 0.868426 -0.110165
vn 0.345378 0.540422 -0.767240
vn 0.345378 0.540422 -0.767240
vn 0.345378 0.540422 -0.767240
vn 0.871420 0.018372 0.490194
vn 0.871420 0.018372 0.490194
vn 0.871420 0.018372 0.490194
vn 0.988329 0.152183 0.006840
vn 0.988329 0.152183 0.006840
vn 0.988329 0.152183 0.006840
vn 0.904216 -0.068647 -0.421522
vn 0.904216 -0.068647 -0.421522
vn 0.904216 -0.068647 -0.421522
vn 0.693497 -0.041502 -0.719263
vn 0.693497 -0.041502 -0.719263
vn 0.693497 -0.041502 -0.719263
vn -0.258088 -0.708175 -0.657175
vn -0.258088 -0.708175 -0.657175
vn -0.258088 -0.708175 -0.657175
vn 0.260234 0.227218 -0.938430
vn 0.260234 0.227218 -0.938430
vn 0.260234 0.227218 -0.938430
vn 0.597864 -0.801381 0.018633
vn 0.597864 -0.801381 0.018633
vn 0.597864 -0.801381 0.018633
vn 0.074858 -0.822258 -0.564170
vn 0.074858 -0.822258 -0.564170
vn 0.074858 -0.822258 -0.564170
vn -0.806786 -0.587211 0.065424
vn -0.806786 -0.587211 0.065424
vn -0.806786 -0.587211 0.065424
vn 0.191364 -0.957719 0.214836
vn 0.191364 -0.957719 0.214836
vn 0.191364 -0.957719 0.214836
vn 0.475954 -0.692718 0.541858
vn 0.475954 -0.692718 0.541858
vn 0.475954 -0.692718 0.541858
vn 0.003960 -0.629609 0.776902
vn 0.003960 -0.629609 0.776902
vn 0.003960 -0.629609 0.776902
vn -0.775381 -0.513535 0.367515
vn -0.775381 -0.513535 0.367515
vn -0.775381 -0.513535 0.367515
vn 0.236269 -0.954827 -0.180229
vn 0.236269 -0.954827 -0.180229
vn 0.236269 -0.954827 -0.180229
s off
g tree:crown3 group3
usemtl initialShadingGroup
f 1/1/1 5/2/2 7/3/3
f 5/2/4 6/4/5 17/5/6
f 5/2/7 17/5/8 7/3/9
f 7/3/10 17/5/11 8/6/12
f 6/4/13 2/7/14 11/8/15
f 6/4/16 11/8/17 17/5/18
f 17/5/19 11/8/20 12/9/21
f 17/5/22 12/9/23 8/6/24
f 8/6/25 12/9/26 3/10/27
f 1/11/28 7/12/29 9/13/30
f 7/3/31 8/6/32 18/14/33
f 7/12/34 18/15/35 9/13/36
f 9/13/37 18/15/38 10/16/39
f 8/6/40 3/10/41 15/17/42
f 8/6/43 15/17/44 18/14/45
f 18/15/46 15/18/47 16/19/48
f 18/15/49 16/19/50 10/16/51
f 10/16/52 16/19/53 4/20/54
f 1/21/55 9/13/56 5/2/57
f 9/13/58 10/16/59 19/22/60
f 9/13/61 19/22/62 5/2/63
f 5/2/64 19/22/65 6/4/66
f 10/16/67 4/20/68 14/23/69
f 10/16/70 14/23/71 19/22/72
f 19/22/73 14/23/74 13/24/75
f 19/22/76 13/24/77 6/4/78
f 6/4/79 13/24/80 2/7/81
f 2/7/82 13/24/83 11/8/84
f 13/24/85 14/23/86 20/25/87
f 13/24/88 20/25/89 11/8/90
f 11/8/91 20/25/92 12/9/93
f 14/23/94 4/20/95 16/19/96
f 14/23/97 16/19/98 20/25/99
f 20/25/100 16/19/101 15/18/102
f 20/25/103 15/17/104 12/9/105
f 12/9/106 15/17/107 3/10/108
g default
v 23.224648 0.102596 1.720785
v 23.388399 -0.140703 -2.171432
v 19.863188 0.038842 1.879634
v 20.026939 -0.092013 -2.012583
v 23.059616 18.780628 1.349052
v 23.053852 18.722927 0.481025
v 22.309956 18.765005 1.344055
v 22.304192 18.715414 0.476028
v 22.924480 4.592450 -1.201470
v 22.874554 9.204764 -0.373200
v 22.447777 14.022987 -0.099790
v 22.646391 14.092329 0.934431
v 22.797911 9.308146 1.140711
v 22.804169 4.757928 1.207325
v 20.844158 4.598963 -1.095270
v 21.567085 9.198678 -0.307437
v 21.554586 14.015230 -0.271804
v 20.723846 4.709007 1.313524
v 21.490442 9.278244 1.206474
v 21.753201 14.073141 0.762417
vt 1.000000 0.000000
vt 1.000000 1.000000
vt 0.000000 1.000000
vt 0.000000 0.000000
vt 1.000000 0.500000
vt 0.000000 0.500000
vt 0.000000 0.250000
vt 1.000000 0.250000
vt 0.000000 0.750000
vt 1.000000 0.750000
vt 0.000000 0.000000
vt 1.000000 0.000000
vt 1.000000 1.000000
vt 0.000000 1.000000
vt 1.000000 0.500000
vt 0.000000 0.500000
vt 0.000000 0.250000
vt 1.000000 0.250000
vt 1.000000 0.500000
vt 0.000000 0.500000
vt 0.000000 0.250000
vt 1.000000 0.250000
vt 1.000000 0.500000
vt 0.000000 0.500000
vt 0.000000 0.250000
vt 1.000000 0.250000
vt 1.000000 1.000000
vt 0.000000 1.000000
vt 0.000000 0.000000
vt 1.000000 0.000000
vt 1.000000 1.000000
vt 0.000000 1.000000
vt 0.000000 0.750000
vt 1.000000 0.750000
vt 1.000000 0.750000
vt 0.000000 0.750000
vt 0.000000 0.500000
vt 1.000000 0.500000
vt 1.000000 0.000000
vt 1.000000 0.250000
vt 0.000000 0.250000
vt 1.000000 1.000000
vt 0.000000 1.000000
vt 0.000000 0.750000
vt 1.000000 0.750000
vt 1.000000 0.750000
vt 0.000000 0.750000
vt 0.000000 0.500000
vt 1.000000 0.500000
vt 0.000000 0.000000
vt 1.000000 0.000000
vt 1.000000 0.250000
vt 0.000000 0.250000
vt 1.000000 1.000000
vt 0.000000 1.000000
vt 0.000000 0.750000
vt 1.000000 0.750000
vt 1.000000 0.750000
vt 0.000000 0.750000
vt 0.000000 0.500000
vt 1.000000 0.500000
vt 0.000000 0.000000
vt 1.000000 0.250000
vt 0.000000 0.250000
vn 0.004516 -0.998828 0.048198
vn 0.004516 -0.998828 0.048198
vn 0.004516 -0.998828 0.048198
vn 0.004516 -0.998828 0.048198
vn -0.014990 0.997990 -0.061579
vn -0.014990 0.997990 -0.061579
vn -0.014990 0.997990 -0.061579
vn -0.014990 0.997990 -0.061579
vn 0.998747 0.001967 0.050011
vn 0.998747 0.001967 0.050011
vn 0.998747 0.001967 0.050011
vn 0.998747 0.001967 0.050011
vn -0.049880 0.176114 -0.983105
vn -0.049880 0.176114 -0.983105
vn -0.049880 0.176114 -0.983105
vn -0.049880 0.176114 -0.983105
vn -0.984751 0.164236 -0.057382
vn -0.984751 0.164236 -0.057382
vn -0.984751 0.164236 -0.057382
vn -0.984751 0.164236 -0.057382
vn 0.050345 0.014819 0.998622
vn 0.050345 0.014819 0.998622
vn 0.050345 0.014819 0.998622
vn 0.050345 0.014819 0.998622
vn 0.990264 -0.096920 -0.099922
vn 0.990264 -0.096920 -0.099922
vn 0.990264 -0.096920 -0.099922
vn 0.990264 -0.096920 -0.099922
vn 0.996829 0.060395 -0.051810
vn 0.996829 0.060395 -0.051810
vn 0.996829 0.060395 -0.051810
vn 0.996829 0.060395 -0.051810
vn 0.995014 0.091839 0.038899
vn 0.995014 0.091839 0.038899
vn 0.995014 0.091839 0.038899
vn 0.995014 0.091839 0.038899
vn 0.105153 0.124293 -0.986658
vn 0.105153 0.124293 -0.986658
vn 0.105153 0.124293 -0.986658
vn 0.105153 0.124293 -0.986658
vn 0.047982 0.034208 -0.998262
vn 0.047982 0.034208 -0.998262
vn 0.047982 0.034208 -0.998262
vn 0.047982 0.034208 -0.998262
vn -0.045685 0.197803 -0.979177
vn -0.045685 0.197803 -0.979177
vn -0.045685 0.197803 -0.979177
vn -0.045685 0.197803 -0.979177
vn -0.987406 0.123310 0.099119
vn -0.987406 0.123310 0.099119
vn -0.987406 0.123310 0.099119
vn -0.987406 0.123310 0.099119
vn -0.998537 0.027966 0.046289
vn -0.998537 0.027966 0.046289
vn -0.998537 0.027966 0.046289
vn -0.998537 0.027966 0.046289
vn -0.982693 0.178054 -0.051109
vn -0.982693 0.178054 -0.051109
vn -0.982693 0.178054 -0.051109
vn -0.982693 0.178054 -0.051109
vn -0.104673 -0.094326 0.990023
vn -0.104673 -0.094326 0.990023
vn -0.104673 -0.094326 0.990023
vn -0.104673 -0.094326 0.990023
vn -0.049631 0.068226 0.996435
vn -0.049631 0.068226 0.996435
vn -0.049631 0.068226 0.996435
vn -0.049631 0.068226 0.996435
vn 0.046010 0.112732 0.992560
vn 0.046010 0.112732 0.992560
vn 0.046010 0.112732 0.992560
vn 0.046010 0.112732 0.992560
s off
g group3 tree:trunk3
usemtl initialShadingGroup
f 21/26/109 23/27/110 24/28/111 22/29/112
f 25/36/113 26/37/114 28/38/115 27/39/116
f 30/30/117 33/31/118 34/32/119 29/33/120
f 36/40/121 30/41/122 29/42/123 35/43/124
f 39/44/125 36/45/126 35/46/127 38/47/128
f 33/48/129 39/49/130 38/50/131 34/51/132
f 26/52/133 25/53/134 32/34/135 31/35/136
f 31/35/137 32/34/138 33/31/139 30/30/140
f 21/54/141 22/55/142 29/33/143 34/32/144
f 28/56/145 26/57/146 31/58/147 37/59/148
f 37/60/149 31/61/150 30/62/151 36/63/152
f 22/29/153 24/64/154 35/65/155 29/66/156
f 27/67/157 28/68/158 37/69/159 40/70/160
f 40/71/161 37/72/162 36/73/163 39/74/164
f 24/75/165 23/76/166 38/77/167 35/78/168
f 25/79/169 27/80/170 40/81/171 32/82/172
f 32/83/173 40/84/174 39/85/175 33/86/176
f 23/87/177 21/26/178 34/88/179 38/89/180
